<?xml version="1.0" standalone="no"?><!DOCTYPE svg PUBLIC "-//W3C//DTD SVG 1.1//EN" "http://www.w3.org/Graphics/SVG/1.1/DTD/svg11.dtd"><svg t="1667985566888" class="icon" viewBox="0 0 1024 1024" version="1.1" xmlns="http://www.w3.org/2000/svg" p-id="1478" xmlns:xlink="http://www.w3.org/1999/xlink" width="200" height="200"><path d="M517.61664 572.1344m-359.57248 0a359.57248 359.57248 0 1 0 719.14496 0 359.57248 359.57248 0 1 0-719.14496 0Z" fill="#5EB1BE" p-id="1479"></path><path d="M517.61664 939.136c-202.368 0-367.0016-164.63872-367.0016-367.0016s164.63872-367.0016 367.0016-367.0016 367.0016 164.63872 367.0016 367.0016-164.63872 367.0016-367.0016 367.0016z m0-719.14496c-194.17088 0-352.13824 157.96736-352.13824 352.13824s157.96736 352.13824 352.13824 352.13824 352.13824-157.96736 352.13824-352.13824-157.96736-352.13824-352.13824-352.13824z" fill="#6C0000" p-id="1480"></path><path d="M561.02912 377.76896C321.12128 309.49376 50.2784 292.63872 20.8896 395.904c-29.38368 103.24992 209.75104 231.53152 449.65888 299.80672s510.75072 85.13024 540.13952-18.11968c29.38368-103.26528-209.74592-231.54688-449.65888-299.82208z m429.27104 294.02112c-18.86208 66.2784-242.88768 82.65728-514.46784 5.36576C204.24192 599.86432 22.41024 467.98336 41.27744 401.70496c18.86208-66.2784 242.8928-82.67776 514.47296-5.38624 271.58528 77.29152 453.41184 209.18784 434.54976 275.47136z" fill="#6B0306" p-id="1481"></path><path d="M274.6368 321.51552c-10.9824 8.23808-23.54688 22.8864-29.52192 30.208 87.56224 1.52576 186.95168 19.61472 306.18112 53.55008 131.90144 37.53984 237.91616 81.94048 314.76224 131.46624-1.03424-9.76896-6.43584-35.7888-8.23808-45.312-84.59776-49.73568-180.79744-99.39968-293.48352-131.46624-102.56384-29.18912-197.10464-33.42336-289.69984-38.44608z" fill="#5EB1BE" p-id="1482"></path><path d="M660.39808 439.97696m-92.60032 0a92.60032 92.60032 0 1 0 185.20064 0 92.60032 92.60032 0 1 0-185.20064 0Z" fill="#FFC700" p-id="1483"></path><path d="M660.44416 538.79296h-0.00512a98.9696 98.9696 0 0 1-27.0848-3.79904c-52.39296-14.91456-82.88768-69.66784-67.98336-122.0608 12.02688-42.2656 51.08224-71.77728 94.976-71.77728 9.11872 0 18.23232 1.27488 27.0848 3.79904a98.15552 98.15552 0 0 1 59.27424 46.95552 98.16576 98.16576 0 0 1 8.70912 75.10528c-12.02688 42.2656-51.07712 71.77728-94.97088 71.77728z m-0.09216-185.25184c-38.38464 0-72.54528 25.81504-83.06176 62.78144-13.03552 45.82912 13.63456 93.71648 59.45344 106.76224 7.75168 2.20672 15.72352 3.328 23.70048 3.328 38.38464 0 72.54016-25.81504 83.06176-62.78144 6.31808-22.20032 3.61472-45.52704-7.61344-65.69472s-29.6448-34.74432-51.84-41.06752a86.6304 86.6304 0 0 0-23.70048-3.328z" fill="#6C0000" p-id="1484"></path><path d="M311.84896 443.4688m-52.52096 0a52.52096 52.52096 0 1 0 105.04192 0 52.52096 52.52096 0 1 0-105.04192 0Z" fill="#FFC700" p-id="1485"></path><path d="M311.87456 502.19008c-5.42208 0-10.84416-0.76288-16.09728-2.25792-31.13472-8.86272-49.25952-41.40544-40.40192-72.54016 7.14752-25.1136 30.3616-42.65472 56.448-42.65472 5.41696 0 10.83392 0.76288 16.09216 2.25792a58.3424 58.3424 0 0 1 35.2256 27.90912 58.28608 58.28608 0 0 1 5.17632 44.63104c-7.14752 25.1136-30.3616 42.65472-56.44288 42.65472z m-0.04608-105.06752c-20.5824 0-38.89664 13.83936-44.53888 33.65888-6.9888 24.57088 7.30624 50.2528 31.872 57.2416a46.50496 46.50496 0 0 0 12.71296 1.78176c20.57728 0 38.8864-13.83936 44.52864-33.65888a46.06976 46.06976 0 0 0-4.08064-35.2256 46.00832 46.00832 0 0 0-27.79136-22.016 46.42816 46.42816 0 0 0-12.70272-1.78176z" fill="#6C0000" p-id="1486"></path><path d="M455.73632 547.61984m-31.46752 0a31.46752 31.46752 0 1 0 62.93504 0 31.46752 31.46752 0 1 0-62.93504 0Z" fill="#FFC700" p-id="1487"></path><path d="M455.7568 585.28256h-0.00512a37.5808 37.5808 0 0 1-10.32192-1.44384 37.41184 37.41184 0 0 1-22.59968-17.8944 37.38624 37.38624 0 0 1-3.31776-28.63104 37.79584 37.79584 0 0 1 36.20352-27.36128c3.4816 0 6.95296 0.48128 10.32704 1.44384 19.97312 5.6832 31.59552 26.56256 25.91232 46.53056a37.7856 37.7856 0 0 1-36.1984 27.35616z m-0.04096-62.9504a25.3696 25.3696 0 0 0-24.28928 18.36544 25.09312 25.09312 0 0 0 2.2272 19.21536 25.10848 25.10848 0 0 0 15.16544 12.01152c13.22496 3.7632 27.51488-4.32128 31.22688-17.38752a25.30816 25.30816 0 0 0-24.33024-32.2048z" fill="#6C0000" p-id="1488"></path><path d="M703.04256 637.824m-19.69664 0a19.69664 19.69664 0 1 0 39.39328 0 19.69664 19.69664 0 1 0-39.39328 0Z" fill="#FFC700" p-id="1489"></path><path d="M703.04768 663.71584a25.91744 25.91744 0 0 1-24.90368-32.97792c3.80416-13.37856 18.5088-21.65248 31.98464-17.81248a25.73312 25.73312 0 0 1 15.53408 12.29824 25.73824 25.73824 0 0 1 2.2784 19.69152 25.99424 25.99424 0 0 1-24.89344 18.80064z m-0.01536-39.3984a13.568 13.568 0 0 0-12.9792 9.81504 13.5168 13.5168 0 0 0 9.28768 16.67584c7.05024 1.99168 14.6944-2.30912 16.68608-9.28768a13.39904 13.39904 0 0 0-1.18272-10.2656 13.42464 13.42464 0 0 0-8.10496-6.41536 13.47584 13.47584 0 0 0-3.70688-0.52224z" fill="#6C0000" p-id="1490"></path><path d="M464.57856 748.48256m-48.82432 0a48.82432 48.82432 0 1 0 97.64864 0 48.82432 48.82432 0 1 0-97.64864 0Z" fill="#FFC700" p-id="1491"></path><path d="M464.59904 803.51232c-5.08416 0-10.15808-0.70656-15.08352-2.10944-29.17888-8.30976-46.1568-38.80448-37.85728-67.97312 6.69184-23.53664 28.44672-39.97184 52.89472-39.97184 5.07904 0 10.15296 0.70656 15.08352 2.10944 29.17888 8.30976 46.1568 38.80448 37.85728 67.97312-6.69184 23.53664-28.44672 39.97184-52.89472 39.97184z m-0.04096-97.67424c-18.93888 0-35.79392 12.73344-40.98048 30.97088-6.43584 22.60992 6.72256 46.24384 29.32736 52.67456a42.5984 42.5984 0 0 0 11.69408 1.6384c18.944 0 35.79392-12.73344 40.98048-30.97088 6.43584-22.60992-6.72256-46.24384-29.32736-52.67456a42.8544 42.8544 0 0 0-11.69408-1.6384z" fill="#6C0000" p-id="1492"></path><path d="M153.81504 218.54208m-27.26912 0a27.26912 27.26912 0 1 0 54.53824 0 27.26912 27.26912 0 1 0-54.53824 0Z" fill="#6C0000" p-id="1493"></path></svg>